<svg xmlns="http://www.w3.org/2000/svg"  viewBox="0 0 32 32" width="32px" height="32px" baseProfile="basic"><linearGradient id="-fWQGOeNm0snu0Ag7J8c8a" x1="17" x2="17" y1="5.134" y2="27.041" gradientUnits="userSpaceOnUse"><stop offset="0" stop-color="#ff624a"/><stop offset=".247" stop-color="#ff5940"/><stop offset=".672" stop-color="#fd4224"/><stop offset="1" stop-color="#fc2c0a"/></linearGradient><path fill="url(#-fWQGOeNm0snu0Ag7J8c8a)" d="M20,16l7.707-7.707c0.391-0.391,0.391-1.024,0-1.414l-1.586-1.586	c-0.391-0.391-1.024-0.391-1.414,0L17,13L9.293,5.293c-0.391-0.391-1.024-0.391-1.414,0L6.293,6.879	c-0.391,0.391-0.391,1.024,0,1.414L14,16l-7.707,7.707c-0.391,0.391-0.391,1.024,0,1.414l1.586,1.586	c0.391,0.391,1.024,0.391,1.414,0L17,19l7.707,7.707c0.391,0.391,1.024,0.391,1.414,0l1.586-1.586c0.391-0.391,0.391-1.024,0-1.414	L20,16z"/><linearGradient id="-fWQGOeNm0snu0Ag7J8c8b" x1="17" x2="17" y1="4.907" y2="26.81" gradientUnits="userSpaceOnUse"><stop offset="0" stop-opacity=".02"/><stop offset="1" stop-opacity=".15"/></linearGradient><path fill="url(#-fWQGOeNm0snu0Ag7J8c8b)" d="M20,16l7.707-7.707	c0.391-0.391,0.391-1.024,0-1.414l-1.586-1.586C25.926,5.098,25.67,5,25.414,5s-0.512,0.098-0.707,0.293L17,13L9.293,5.293	C9.098,5.098,8.842,5,8.586,5S8.074,5.098,7.879,5.293L6.293,6.879c-0.391,0.391-0.391,1.024,0,1.414L14,16l-7.707,7.707	c-0.391,0.391-0.391,1.024,0,1.414l1.586,1.586C8.074,26.902,8.33,27,8.586,27s0.512-0.098,0.707-0.293L17,19l7.707,7.707	C24.902,26.902,25.158,27,25.414,27s0.512-0.098,0.707-0.293l1.586-1.586c0.391-0.391,0.391-1.024,0-1.414L20,16z M27.53,24.944	l-1.586,1.586c-0.142,0.142-0.33,0.22-0.53,0.22s-0.389-0.078-0.53-0.22l-7.707-7.707L17,18.646l-0.177,0.177L9.116,26.53	c-0.142,0.142-0.33,0.22-0.53,0.22c-0.2,0-0.389-0.078-0.53-0.22L6.47,24.944c-0.142-0.142-0.22-0.33-0.22-0.53	s0.078-0.389,0.22-0.53l7.707-7.707L14.354,16l-0.177-0.177L6.47,8.116c-0.142-0.142-0.22-0.33-0.22-0.53s0.078-0.389,0.22-0.53	L8.055,5.47c0.142-0.142,0.33-0.22,0.53-0.22s0.389,0.078,0.53,0.22l7.707,7.707L17,13.353l0.177-0.177l7.707-7.707	c0.142-0.142,0.33-0.22,0.53-0.22s0.389,0.078,0.53,0.22l1.586,1.586c0.142,0.142,0.22,0.33,0.22,0.53s-0.078,0.389-0.22,0.53	l-7.707,7.707L19.646,16l0.177,0.177l7.707,7.707C27.823,24.176,27.823,24.652,27.53,24.944z"/></svg>