<svg xmlns="http://www.w3.org/2000/svg"  viewBox="0 0 100 100" width="100px" height="100px" fill-rule="evenodd" clip-rule="evenodd" baseProfile="basic"><circle cx="49.998" cy="50.001" r="23" fill="#f15663" fill-rule="evenodd" clip-rule="evenodd"/><path fill="#048" fill-rule="evenodd" d="M66.968,71.002h33.027v4	H60.207C62.661,74.002,64.927,72.642,66.968,71.002z M-0.005,75.002v-4h50.013c11.587-0.013,20.987-9.413,20.987-21s-9.4-21-21-21	c-11.587,0-21,9.413-21,21c0,8.387,4.933,15.64,12.053,19h-7.293c-5.36-4.587-8.76-11.4-8.76-19c0-13.8,11.2-25,25-25s25,11.2,25,25	s-11.2,25-25,25H-0.005z M42.221,59.189l-1.413-1.413l7.773-7.773l-7.773-7.787l1.413-1.413l7.773,7.786l7.787-7.786l1.413,1.413	l-7.786,7.787l7.786,7.773l-1.413,1.413l-7.787-7.773L42.221,59.189z" clip-rule="evenodd"/></svg>